<svg width="96" height="30" viewBox="0 0 96 30" fill="none" xmlns="http://www.w3.org/2000/svg">
<rect y="1.39453" width="96" height="26.4971" fill="white"/>
<path d="M10.8995 6.53527C13.3121 6.53527 15.22 7.14235 16.6234 8.35649C18.0267 9.55487 18.7284 11.2736 18.7284 13.5127H13.7378C13.7378 12.5666 13.4855 11.8176 12.9809 11.2657C12.4921 10.7138 11.7904 10.4379 10.8759 10.4379C9.81942 10.4379 9.03889 10.769 8.53431 11.4313C8.0455 12.0935 7.8011 13.016 7.8011 14.1986V15.7123C7.8011 16.8792 8.0455 17.8016 8.53431 18.4796C9.03889 19.1419 9.80365 19.473 10.8286 19.473C11.8377 19.473 12.6025 19.2128 13.1228 18.6925C13.6432 18.1721 13.9034 17.4389 13.9034 16.4928H18.7284C18.7284 18.7161 18.0425 20.4191 16.6707 21.6017C15.3146 22.7843 13.3909 23.3756 10.8995 23.3756C8.12434 23.3756 6.0193 22.6661 4.5844 21.2469C3.16527 19.8278 2.45571 17.7306 2.45571 14.9554C2.45571 12.1803 3.16527 10.0831 4.5844 8.66397C6.0193 7.24484 8.12434 6.53527 10.8995 6.53527Z" fill="black"/>
<path d="M26.3 11.9043C26.8046 11.3997 27.3959 11.0134 28.0739 10.7454C28.7519 10.4615 29.4615 10.3196 30.2026 10.3196C31.6533 10.3196 32.7413 10.7217 33.4666 11.5259C34.1919 12.3301 34.5546 13.489 34.5546 15.0028V23.0918H29.8478V15.5704C29.8478 15.0343 29.7059 14.6085 29.4221 14.2932C29.154 13.9621 28.7677 13.7965 28.2631 13.7965C27.6797 13.7965 27.2067 13.9857 26.844 14.3641C26.4813 14.7426 26.3 15.2077 26.3 15.7596V23.0918H21.5932V5.94397H26.3V11.9043Z" fill="black"/>
<path d="M44.0502 10.3196C46.242 10.3196 47.9607 10.8794 49.2064 11.9989C50.4679 13.1027 51.0986 14.7189 51.0986 16.8476C51.0986 18.9763 50.4679 20.6004 49.2064 21.72C47.9607 22.8237 46.242 23.3756 44.0502 23.3756C41.8585 23.3756 40.1398 22.8237 38.8941 21.72C37.6484 20.6162 37.0256 18.9921 37.0256 16.8476C37.0256 14.7032 37.6484 13.079 38.8941 11.9753C40.1398 10.8715 41.8585 10.3196 44.0502 10.3196ZM44.0502 13.5127C42.505 13.5127 41.7323 14.4036 41.7323 16.1854V17.5335C41.7323 19.2996 42.505 20.1826 44.0502 20.1826C45.6113 20.1826 46.3918 19.2996 46.3918 17.5335V16.1854C46.3918 14.4036 45.6113 13.5127 44.0502 13.5127Z" fill="black"/>
<path d="M53.7588 9.13701V5.94397H58.4656V9.13701H53.7588ZM53.7588 23.0918V10.6034H58.4656V23.0918H53.7588Z" fill="black"/>
<path d="M66.0938 10.7453C67.9826 9.94883 69.679 9.71265 71.1831 10.0367C72.6956 10.3402 73.7996 11.3206 74.4953 12.9781L70.289 14.7518C69.7399 13.4432 68.7533 13.0891 67.3295 13.6895C65.9056 14.2899 65.5384 15.4116 66.228 17.0546L66.7497 18.2977C67.4331 19.9262 68.5158 20.4279 69.9978 19.803C71.4798 19.1781 71.9401 18.1968 71.3787 16.8592L75.4106 15.1591C76.1123 16.8311 76.0456 18.3224 75.2105 19.6328C74.3898 20.9372 73.0351 21.9876 71.1463 22.784C69.1268 23.6356 67.3295 23.7945 65.7545 23.2607C64.1796 22.727 62.9772 21.4714 62.1473 19.494C61.3174 17.5167 61.2628 15.7771 61.9834 14.2753C62.7041 12.7736 64.0742 11.5969 66.0938 10.7453Z" fill="white"/>
<path d="M71.1831 10.0367L71.036 10.7173L71.0457 10.7193L71.1831 10.0367ZM74.4953 12.9781L74.7645 13.6196L75.4055 13.3493L75.1363 12.7079L74.4953 12.9781ZM70.289 14.7518L69.648 15.0221L69.9173 15.6635L70.5583 15.3932L70.289 14.7518ZM71.3787 16.8592L71.1095 16.2177L70.4685 16.488L70.7377 17.1295L71.3787 16.8592ZM75.4106 15.1591L76.0516 14.8888L75.7824 14.2473L75.1414 14.5176L75.4106 15.1591ZM75.2105 19.6328L74.6245 19.2589L74.6223 19.2623L75.2105 19.6328ZM65.7545 23.2607L65.5309 23.9201L65.5309 23.9201L65.7545 23.2607ZM61.9834 14.2753L61.3569 13.9745L61.3569 13.9745L61.9834 14.2753ZM66.363 11.3867C68.1632 10.6276 69.7109 10.4317 71.036 10.7172L71.3301 9.35625C69.6472 8.99361 67.8019 9.27004 65.8246 10.1038L66.363 11.3867ZM71.0457 10.7193C72.2926 10.9694 73.2309 11.7631 73.8543 13.2484L75.1363 12.7079C74.3684 10.8782 73.0985 9.71094 71.3204 9.35423L71.0457 10.7193ZM74.226 12.3367L70.0198 14.1103L70.5583 15.3932L74.7645 13.6196L74.226 12.3367ZM70.93 14.4815C70.6078 13.7136 70.1069 13.1131 69.3725 12.8495C68.6525 12.5911 67.8581 12.7117 67.0602 13.0481L67.5987 14.331C68.2247 14.067 68.6355 14.0644 68.902 14.1601C69.1541 14.2506 69.4211 14.4814 69.648 15.0221L70.93 14.4815ZM67.0602 13.0481C66.2238 13.4008 65.59 13.957 65.3256 14.765C65.0689 15.5492 65.2094 16.4252 65.587 17.3249L66.869 16.7843C66.557 16.0411 66.5363 15.5347 66.6468 15.1972C66.7495 14.8835 67.0112 14.5787 67.5987 14.331L67.0602 13.0481ZM65.587 17.3249L66.1087 18.568L67.3907 18.0274L66.869 16.7843L65.587 17.3249ZM66.1087 18.568C66.486 19.467 67.0225 20.1753 67.7817 20.5271C68.556 20.8859 69.411 20.8054 70.267 20.4445L69.7286 19.1616C69.1027 19.4255 68.6754 19.4065 68.367 19.2636C68.0434 19.1137 67.6968 18.7568 67.3907 18.0274L66.1087 18.568ZM70.267 20.4445C71.0914 20.0968 71.7519 19.601 72.0838 18.8937C72.4234 18.1696 72.3495 17.3747 72.0197 16.5889L70.7377 17.1295C70.9693 17.6813 70.946 18.0458 70.8253 18.3031C70.6968 18.577 70.3862 18.8843 69.7286 19.1616L70.267 20.4445ZM71.6479 17.5006L75.6798 15.8005L75.1414 14.5176L71.1095 16.2177L71.6479 17.5006ZM74.7696 15.4294C75.4 16.9315 75.3148 18.1757 74.6245 19.2589L75.7964 20.0068C76.7764 18.469 76.8246 16.7308 76.0516 14.8888L74.7696 15.4294ZM74.6223 19.2623C73.8993 20.4115 72.6773 21.3835 70.8771 22.1426L71.4155 23.4255C73.3929 22.5917 74.8804 21.4628 75.7986 20.0033L74.6223 19.2623ZM70.8771 22.1426C68.9636 22.9494 67.3469 23.0653 65.9781 22.6014L65.5309 23.9201C67.3121 24.5237 69.2899 24.3218 71.4155 23.4255L70.8771 22.1426ZM65.9781 22.6014C64.6427 22.1488 63.5648 21.074 62.7883 19.2237L61.5063 19.7643C62.3895 21.8688 63.7165 23.3052 65.5309 23.9201L65.9781 22.6014ZM62.7883 19.2237C62.0117 17.3735 61.9989 15.8496 62.61 14.5762L61.3569 13.9745C60.5266 15.7046 60.623 17.6598 61.5063 19.7643L62.7883 19.2237ZM62.61 14.5762C63.2364 13.271 64.4495 12.1936 66.363 11.3867L65.8246 10.1038C63.699 11.0001 62.1719 12.2761 61.3569 13.9745L62.61 14.5762Z" fill="black"/>
<path d="M85.7893 10.3196C88.0756 10.3196 89.818 10.8557 91.0164 11.928C92.2305 13.0002 92.8376 14.6401 92.8376 16.8476V17.6518H83.4713C83.4713 18.5506 83.6684 19.2286 84.0627 19.6859C84.4726 20.1432 85.1112 20.3718 85.9785 20.3718C86.7669 20.3718 87.3424 20.2062 87.7051 19.8751C88.0835 19.544 88.2727 19.1025 88.2727 18.5506H92.8376C92.8376 20.0643 92.2621 21.2469 91.111 22.0984C89.9599 22.9499 88.2806 23.3756 86.0731 23.3756C83.7552 23.3756 81.9576 22.8395 80.6804 21.7673C79.4032 20.6793 78.7646 19.0394 78.7646 16.8476C78.7646 14.7032 79.3874 13.079 80.6331 11.9753C81.8788 10.8715 83.5975 10.3196 85.7893 10.3196ZM85.9785 13.3234C84.4963 13.3234 83.6684 14.0251 83.495 15.4285H88.0835C88.0835 14.782 87.8943 14.2695 87.5159 13.8911C87.1532 13.5127 86.6407 13.3234 85.9785 13.3234Z" fill="black"/>
</svg>
